<?xml version="1.0" encoding="UTF-8"?>
<svg width="23px" height="23px" viewBox="0 0 23 23" version="1.1" xmlns="http://www.w3.org/2000/svg" xmlns:xlink="http://www.w3.org/1999/xlink">
    <!-- Generator: Sketch 52.5 (67469) - http://www.bohemiancoding.com/sketch -->
    <title>Group 30</title>
    <desc>Created with Sketch.</desc>
    <g id="E-school-Desktop" stroke="none" stroke-width="1" fill="none" fill-rule="evenodd">
        <g id="Home" transform="translate(-25.000000, -109.000000)">
            <g id="Group-8" transform="translate(15.000000, 109.000000)">
                <g id="Group-30" transform="translate(10.000000, 0.000000)">
                    <path d="M11.2788021,0.330421729 C17.3254091,0.330421729 22.2271692,5.23218183 22.2271692,11.2787889 C22.2271692,17.3253959 17.3254091,22.227112 11.2788021,22.227112 C5.23219505,22.227112 0.330434946,17.3253959 0.330434946,11.2787889 C0.330434946,5.23218183 5.23219505,0.330421729 11.2788021,0.330421729" id="Fill-1" fill="#0F3C7A"></path>
                    <path d="M12.8681369,20.637927 C6.82152986,20.637927 1.91976976,15.7361228 1.91976976,9.6895598 C1.91976976,7.07106112 2.84018529,4.66827037 4.37357967,2.78430654 C1.90699294,4.79176492 0.330509845,7.85075542 0.330509845,11.2788197 C0.330509845,17.3253827 5.23222589,22.2271428 11.2788329,22.2271428 C14.7069854,22.2271428 17.7659759,20.6506157 19.7733902,18.1840289 C17.8894704,19.7174674 15.4866356,20.637927 12.8681369,20.637927" id="Fill-3" fill="#1B356B"></path>
                    <path d="M11.2788462,13.3874617 C9.16943758,13.3874617 7.15589919,13.1425433 5.30863567,12.6998486 C5.06935671,12.642441 4.86312124,12.8924701 4.93696244,13.1529851 C5.78891185,16.1604277 8.30347773,18.3423117 11.2788462,18.3423117 C14.2541705,18.3423117 16.7688245,16.1604718 17.6207299,13.1529851 C17.694527,12.8924701 17.4883356,12.642441 17.2490566,12.6998486 C15.4017491,13.1425433 13.3882107,13.3874617 11.2788462,13.3874617" id="Fill-5" fill="#FFFFFF"></path>
                    <path d="M17.2490699,12.699831 C15.4017623,13.1425697 13.3882679,13.3874441 11.2788594,13.3874441 C9.16940673,13.3874441 7.15591241,13.1425697 5.30864888,12.699831 C5.06936993,12.6425115 4.86317852,12.8924525 4.93697566,13.1529674 C5.15995316,13.9401956 5.49928782,14.6687386 5.9285889,15.3185499 C7.68377122,15.6519368 9.46939761,15.8353502 11.2796084,15.8353502 C13.0892904,15.8353502 14.8742559,15.652113 16.6289096,15.3189024 C17.0583428,14.669047 17.3977656,13.9403719 17.6207871,13.1530115 C17.6944962,12.8924085 17.4883488,12.6424234 17.2490699,12.699831" id="Fill-7" fill="#C2C4C6"></path>
                    <path d="M7.57052896,10.2371434 C7.08289509,10.2371434 6.68760678,9.84181101 6.68760678,9.3542212 L6.68760678,7.92370223 C6.68760678,7.43606837 7.08289509,7.04078006 7.57052896,7.04078006 C8.05816282,7.04078006 8.45345113,7.43606837 8.45345113,7.92370223 L8.45345113,9.3542212 C8.45345113,9.84181101 8.05816282,10.2371434 7.57052896,10.2371434" id="Fill-9" stroke="#979797" stroke-width="0.5" fill="#FFFFFF"></path>
                    <path d="M8.45345554,7.92371105 C8.45345554,7.37831715 7.95903675,6.94848738 7.39394893,7.05792743 L7.39394893,8.52730555 C7.39394893,9.10063221 7.88158279,9.55548693 8.45327931,9.51297096 L8.45345554,9.51297096 L8.45345554,7.92371105 Z" id="Fill-11" fill="#FFFFFF"></path>
                    <path d="M16.028029,13.9059626 C16.2189323,13.5787879 16.3786425,13.2283066 16.5126669,12.8634183 C14.8710221,13.2021361 13.1112577,13.3874 11.2788417,13.3874 C9.44528026,13.3874 7.68454664,13.2019599 6.04210873,12.8628455 C6.17670589,13.2294962 6.3390596,13.5805943 6.5311965,13.9090907 C6.75338096,14.2888706 7.12950405,14.5317623 7.53871468,14.5815919 C8.7639234,14.7306401 10.0126591,14.8105172 11.2787977,14.8105172 C12.5446719,14.8105172 13.7930552,14.7306841 15.0179995,14.58168 C15.4286641,14.5317623 15.8054921,14.2871964 16.028029,13.9059626" id="Fill-13" fill="#FFFFFF"></path>
                    <path d="M14.9871369,10.2371434 C14.499503,10.2371434 14.1042147,9.84181101 14.1042147,9.3542212 L14.1042147,7.92370223 C14.1042147,7.43606837 14.499503,7.04078006 14.9871369,7.04078006 C15.4747708,7.04078006 15.8700591,7.43606837 15.8700591,7.92370223 L15.8700591,9.3542212 C15.8701031,9.84181101 15.4747708,10.2371434 14.9871369,10.2371434" id="Fill-15" stroke="#979797" stroke-width="0.5" fill="#FFFFFF"></path>
                    <path d="M15.8700855,7.92371105 C15.8700855,7.37831715 15.3756667,6.94848738 14.8105789,7.05792743 L14.8105789,8.52730555 C14.8105789,9.10063221 15.2982128,9.55548693 15.8699093,9.51297096 L15.8700855,9.51297096 L15.8700855,7.92371105 Z" id="Fill-17" fill="#FFFFFF"></path>
                    <path d="M7.5701016,7.37070834 C7.7525898,7.37070834 7.90053654,7.22280566 7.90053654,7.04031745 C7.90053654,6.85778519 7.7525898,6.7098825 7.5701016,6.7098825 C6.90099286,6.7098825 6.35665636,7.25417495 6.35665636,7.92328368 L6.35665636,9.3361354 C6.35665636,10.0052441 6.90099286,10.5496247 7.5701016,10.5496247 C8.23921033,10.5496247 8.78354683,10.0052441 8.78354683,9.3361354 L8.78354683,8.09991218 C8.78354683,7.91737991 8.63560009,7.76947723 8.45311189,7.76947723 C8.27062368,7.76947723 8.12267694,7.91737991 8.12267694,8.09991218 L8.12267694,9.3361354 C8.12267694,9.64084047 7.87480667,9.8887548 7.5701016,9.8887548 C7.26539652,9.8887548 7.01752625,9.64084047 7.01752625,9.3361354 L7.01752625,7.92328368 C7.01748219,7.61857861 7.26539652,7.37070834 7.5701016,7.37070834" id="Fill-19" fill="#FFFFFF"></path>
                    <path d="M14.9875687,7.37070834 C15.1700569,7.37070834 15.3180036,7.22280566 15.3180036,7.04031745 C15.3180036,6.85778519 15.1700569,6.7098825 14.9875687,6.7098825 C14.3184599,6.7098825 13.7740794,7.25417495 13.7740794,7.92328368 L13.7740794,9.3361354 C13.7740794,10.0052441 14.3184599,10.5496247 14.9875687,10.5496247 C15.6566774,10.5496247 16.2010139,10.0052441 16.2010139,9.3361354 L16.2010139,8.09991218 C16.2010139,7.91737991 16.0530672,7.76947723 15.870579,7.76947723 C15.6880908,7.76947723 15.540144,7.91737991 15.540144,8.09991218 L15.540144,9.3361354 C15.540144,9.64084047 15.2922738,9.8887548 14.9875687,9.8887548 C14.6828636,9.8887548 14.4349493,9.64084047 14.4349493,9.3361354 L14.4349493,7.92328368 C14.4349493,7.61857861 14.6828636,7.37070834 14.9875687,7.37070834" id="Fill-21" fill="#FFFFFF"></path>
                    <path d="M0.665645778,10.9577779 C0.746404079,8.24362935 1.84886723,5.69099736 3.76988383,3.76989265 C5.69094449,1.84887604 8.2436646,0.746412891 10.9577691,0.66565459 C13.6598899,0.585292811 16.2623515,1.52170139 18.2857588,3.30261357 C18.4227792,3.42315624 18.6316141,3.40989479 18.7521127,3.27287443 C18.8726994,3.13589813 18.859438,2.92706324 18.7223735,2.80652058 C16.5728281,0.914538191 13.8083653,-0.080467518 10.9381193,0.00509310397 C8.05500827,0.0909180739 5.34328287,1.26202358 3.30269288,3.30265763 C1.26201477,5.34324763 0.0909092623,8.05492897 0.00508429237,10.9381281 C-0.0803441556,13.8083301 0.91452938,16.572881 2.80646771,18.7224264 C2.87180571,18.7966641 2.96300575,18.834554 3.05469044,18.834554 C3.13218845,18.834554 3.21003892,18.8074143 3.27282156,18.7521656 C3.40984192,18.6315788 3.42314743,18.422788 3.30260476,18.2858117 C1.52169258,16.2624484 0.585239941,13.6599868 0.665645778,10.9577779" id="Fill-23" fill="#000000"></path>
                    <g id="Group-27" transform="translate(3.700871, 3.700783)" fill="#000000">
                        <path d="M16.0502959,0.134487023 C15.9297973,-0.00248927659 15.7209184,-0.0158388484 15.5839421,0.104747878 C15.4470098,0.225334604 15.4336603,0.434125432 15.5542029,0.571101732 C17.3350711,2.59446505 18.2715678,5.19692663 18.1911619,7.89909144 C18.1104036,10.61324 17.0079405,13.165872 15.0869239,15.0869327 C13.1658191,17.0079493 10.6131872,18.1104124 7.89903857,18.1912148 C5.1968297,18.2715766 2.59441218,17.335168 0.571048862,15.5542558 C0.434072562,15.4337131 0.225237677,15.4469746 0.104695008,15.5839949 C-0.015935776,15.7209712 -0.00258620418,15.9298061 0.134390095,16.0503488 C2.19868329,17.8672123 4.83009097,18.8567989 7.57759146,18.8567989 C7.69117296,18.8567989 7.80488664,18.8551247 7.91873249,18.8517763 C10.8018875,18.7659513 13.5135689,17.5948899 15.5541589,15.5542117 C17.594881,13.5135777 18.7659425,10.8018964 18.8517675,7.9187413 C18.9371519,5.04853931 17.9422783,2.28403243 16.0502959,0.134487023" id="Fill-25"></path>
                    </g>
                    <path d="M16.038506,13.2924198 C15.9507865,13.4702819 15.8542555,13.6424605 15.7489128,13.8072374 C15.5846206,14.0641836 15.2975387,14.2385652 14.9808058,14.2736794 C13.7440539,14.4110082 12.4980938,14.4806198 11.2775553,14.4806198 C10.0567523,14.4806198 8.81052795,14.4109641 7.57355574,14.2735913 C7.25761588,14.2385211 6.97128298,14.0651089 6.80760754,13.8097928 C6.70151589,13.6441788 6.60423584,13.4710749 6.51598768,13.2922876 C8.05550613,13.5746993 9.65146286,13.7181522 11.2775553,13.7181522 C12.9034274,13.7181522 14.4992079,13.5747434 16.038506,13.2924198 M17.3018249,13.0270144 C17.3048208,13.0348568 17.3068475,13.0469727 17.3023095,13.0631861 C16.9028798,14.4731299 16.0972353,15.7370656 15.0338957,16.6221466 C13.9408609,17.531812 12.6419432,18.012705 11.2775553,18.012705 C9.91316733,18.012705 8.61424959,17.5318561 7.52125891,16.6221466 C6.45787519,15.7370656 5.65227479,14.4731299 5.25284503,13.0631861 C5.248263,13.0470168 5.25028967,13.0348568 5.25328561,13.0270144 C5.40889844,13.0641113 5.56543649,13.0991814 5.72237106,13.1334145 C5.86657287,13.4960118 6.04425876,13.8435853 6.25119915,14.1663982 C6.52136276,14.587901 6.98837748,14.873573 7.50050759,14.9303638 C8.76166763,15.0704241 10.0323883,15.1414456 11.2775112,15.1414456 C12.5222817,15.1414456 13.792782,15.0704682 15.0536336,14.93054 C15.5668211,14.873573 16.0348933,14.5866674 16.3056296,14.1632701 C16.5112923,13.8416467 16.6877005,13.495395 16.8314177,13.1336348 C16.9888369,13.0993577 17.1458155,13.0641553 17.3018249,13.0270144 M4.78274625,12.5586339 C4.61144877,12.7370247 4.5479612,12.999346 4.61700008,13.2432951 C5.05868146,14.8025515 5.91679898,16.1465847 7.09847841,17.1300912 C8.31174741,18.1397683 9.75680552,18.6735749 11.2775553,18.6735749 C12.798305,18.6735749 14.2434072,18.1398123 15.456588,17.1300912 C16.6383115,16.1465847 17.496385,14.8025075 17.9381104,13.2432951 C18.0072374,12.9994341 17.9437058,12.7371128 17.7724083,12.558678 C17.6140639,12.3937248 17.3893681,12.3264483 17.1714132,12.3787011 C15.2925601,12.8289738 13.309598,13.0572823 11.2775553,13.0572823 C9.24551251,13.0572823 7.26255037,12.8289297 5.38369727,12.3787011 C5.16569832,12.3263602 4.94104662,12.3936808 4.78274625,12.5586339" id="Fill-28" fill="#000000"></path>
                </g>
            </g>
        </g>
    </g>
</svg>