<?xml version="1.0" encoding="UTF-8"?>
<svg width="24px" height="24px" viewBox="0 0 24 24" version="1.1" xmlns="http://www.w3.org/2000/svg" xmlns:xlink="http://www.w3.org/1999/xlink">
    <!-- Generator: Sketch 52.5 (67469) - http://www.bohemiancoding.com/sketch -->
    <title>Support</title>
    <desc>Created with Sketch.</desc>
    <g id="E-school-Desktop" stroke="none" stroke-width="1" fill="none" fill-rule="evenodd">
        <g id="Become-supporter" transform="translate(-907.000000, -53.000000)" fill="#7F7F7F">
            <g id="Support" transform="translate(907.000000, 53.000000)">
                <path d="M23.2236,15.0221739 L22.1164696,15.8128696 L21.2412522,15.8128696 L21.2412522,10.8636522 L22.1182957,10.8636522 L23.2230783,11.6386957 L23.2236,15.0221739 Z M11.9626435,1.41965217 C7.05855652,1.446 3.01194783,5.2646087 2.70177391,10.1590435 L2.05768696,10.1590435 C2.3042087,4.86808696 6.66568696,0.705652174 11.9623826,0.705652174 C17.2588174,0.705652174 21.6200348,4.86808696 21.8670783,10.1590435 L21.2232522,10.1590435 C20.9138609,5.26408696 16.8672522,1.44469565 11.9626435,1.41808696 L11.9626435,1.41965217 Z M2.68612174,15.8118261 L1.81116522,15.8118261 L0.704295652,15.0211304 L0.704295652,11.6394783 L1.80881739,10.8644348 L2.68586087,10.8644348 L2.68612174,15.8118261 Z M14.5590783,19.5393913 C14.5478609,19.7746957 14.3537739,19.9601739 14.1179478,19.9612174 L12.7225565,19.9612174 C12.4781217,19.9612174 12.2796,19.7626957 12.2796,19.518 C12.2796,19.2735652 12.4781217,19.0753043 12.7225565,19.0753043 L14.1179478,19.0753043 C14.353513,19.076087 14.5476,19.2615652 14.5588174,19.4968696 C14.5588174,19.5041739 14.5567304,19.5112174 14.5567304,19.5182609 C14.5567304,19.5253043 14.5585565,19.532087 14.5590783,19.5393913 Z M11.9626435,23.2278261 C7.92307826,23.2228696 4.64968696,19.9494783 4.64473043,15.9101739 L4.64473043,13.3523478 C4.88916522,13.3747826 5.13464348,13.3901739 5.37986087,13.3901739 C8.01516522,13.383913 10.4777739,12.0782609 11.9618609,9.90078261 C13.4467304,12.0787826 15.9101217,13.3844348 18.5462087,13.3901739 C18.791687,13.3901739 19.0369043,13.3747826 19.2810783,13.3523478 L19.2810783,15.9101739 C19.2818609,17.04 19.0189043,18.1546957 18.5141217,19.1653043 L15.209687,19.1653043 C15.0565565,18.6918261 14.615687,18.3706957 14.1179478,18.3701739 L12.7225565,18.3701739 C12.0886435,18.3701739 11.5749913,18.8838261 11.5749913,19.5174783 C11.5749913,20.1511304 12.0886435,20.6647826 12.7225565,20.6647826 L14.1179478,20.6647826 C14.615687,20.664 15.0562957,20.3428696 15.2094261,19.8693913 L18.1113391,19.8693913 C16.7660348,21.9613043 14.4500348,23.2265217 11.9626435,23.2278261 Z M11.9626435,3.42965217 C16.0019478,3.4346087 19.2750783,6.70773913 19.2800348,10.7470435 L19.2800348,12.644087 C19.0361217,12.6701739 18.7906435,12.684 18.5451652,12.6855652 C15.9573391,12.6793043 13.5672522,11.2998261 12.2673391,9.06234783 C12.1314261,8.82834783 11.7933391,8.82834783 11.657687,9.06234783 C10.3577739,11.2998261 7.96768696,12.6793043 5.3796,12.6855652 C5.13412174,12.684 4.88890435,12.6701739 4.64446957,12.644087 L4.64446957,10.7470435 C4.64942609,6.70773913 7.92307826,3.43408696 11.9626435,3.42965217 Z M23.7779478,11.1670435 L22.5753391,10.3233913 C22.4164696,4.57591304 17.7111652,-0.00052173913 11.9616,0 C6.21203478,0.00052173913 1.50777391,4.57773913 1.34994783,10.3252174 L0.150208696,11.1670435 C0.0560347826,11.2330435 0.000208695652,11.3407826 -5.2173913e-05,11.4555652 L-5.2173913e-05,15.2016522 C0.000208695652,15.3156522 0.0555130435,15.4223478 0.148121739,15.4883478 L1.4942087,16.449913 C1.55368696,16.4926957 1.62490435,16.5161739 1.6982087,16.5164348 L3.03855652,16.5164348 C3.23290435,16.5161739 3.39073043,16.3586087 3.39073043,16.164 L3.39073043,10.5331304 C3.39073043,10.5281739 3.39229565,10.5232174 3.39255652,10.5182609 C3.48855652,5.85391304 7.29725217,2.12269565 11.9626435,2.12269565 C16.6280348,2.12269565 20.4367304,5.85391304 20.5327304,10.5182609 C20.5327304,10.5315652 20.5358609,10.5438261 20.5374261,10.5568696 L20.5374261,16.1634783 C20.5374261,16.358087 20.6952522,16.5156522 20.8896,16.5156522 L21.2073391,16.5156522 L21.2073391,16.9215652 C21.2049913,18.0273913 20.3978609,18.9667826 19.3050783,19.1358261 C19.7540348,18.1192174 19.985687,17.0201739 19.9849043,15.9091304 L19.9849043,10.7470435 C19.9849043,6.31643478 16.3932522,2.72504348 11.9626435,2.72504348 C7.53203478,2.72504348 3.94038261,6.31643478 3.94038261,10.7470435 L3.94038261,15.9101739 C3.93933913,19.5513913 6.39177391,22.7366087 9.91246957,23.6663478 C13.4331652,24.5963478 17.1382957,23.0373913 18.9351652,19.869913 L18.9633391,19.869913 C20.5911652,19.8683478 21.9101217,18.5491304 21.9119478,16.9215652 L21.9119478,16.5164348 L22.229687,16.5164348 C22.3032522,16.5164348 22.3749913,16.4932174 22.4347304,16.4506957 L23.7805565,15.4888696 C23.8729043,15.4228696 23.9279478,15.315913 23.9279478,15.2021739 L23.9279478,11.4555652 C23.9279478,11.3407826 23.8721217,11.2330435 23.7779478,11.1670435 Z" id="Fill-1"></path>
            </g>
        </g>
    </g>
</svg>